<svg width="21" height="20" viewBox="0 0 21 20" fill="none" xmlns="http://www.w3.org/2000/svg">
<path fill-rule="evenodd" clip-rule="evenodd" d="M9.9948 2.65826C10.0524 2.47572 10.1666 2.31629 10.321 2.20312C10.4753 2.08995 10.6617 2.02893 10.8531 2.02893C11.0445 2.02893 11.2309 2.08995 11.3853 2.20312C11.5397 2.31629 11.6539 2.47572 11.7115 2.65826L13.2615 7.42492H18.2615C18.4597 7.41743 18.655 7.47504 18.8174 7.58896C18.9798 7.70287 19.1004 7.86683 19.1609 8.05577C19.2214 8.24471 19.2183 8.44826 19.1522 8.6353C19.0861 8.82235 18.9606 8.9826 18.7948 9.09159L14.7365 12.0333L16.2865 16.8083C16.3478 16.9901 16.3493 17.1869 16.2909 17.3697C16.2324 17.5525 16.1171 17.7119 15.9617 17.8245C15.8062 17.9371 15.6189 17.9971 15.4269 17.9957C15.235 17.9942 15.0485 17.9315 14.8948 17.8166L10.8281 14.8416L6.7698 17.7916C6.61606 17.9065 6.42961 17.9692 6.23767 17.9707C6.04574 17.9721 5.85838 17.9121 5.70295 17.7995C5.54752 17.6869 5.43216 17.5275 5.37373 17.3447C5.31529 17.1619 5.31684 16.9651 5.37814 16.7833L6.92814 12.0083L2.8698 9.06659C2.70404 8.9576 2.57851 8.79735 2.51241 8.6103C2.4463 8.42326 2.44324 8.21971 2.5037 8.03077C2.56416 7.84183 2.68482 7.67787 2.84724 7.56395C3.00965 7.45004 3.2049 7.39243 3.40314 7.39992H8.40314L9.9948 2.65826Z" fill="#FDBC15"/>
</svg>
