<svg width="24" height="24" viewBox="0 0 24 24" fill="none" xmlns="http://www.w3.org/2000/svg">
<path d="M17.8899 20.8498H6.10986C5.79217 20.8501 5.48357 20.7438 5.23339 20.5481C4.98322 20.3523 4.80592 20.0782 4.72986 19.7698L2.07986 9.1598C2.054 9.05651 2.05204 8.94868 2.07414 8.84452C2.09624 8.74036 2.14181 8.64261 2.20738 8.55872C2.27295 8.47483 2.35679 8.407 2.45253 8.3604C2.54827 8.3138 2.65338 8.28965 2.75986 8.2898H21.2399C21.3463 8.28965 21.4514 8.3138 21.5472 8.3604C21.6429 8.407 21.7268 8.47483 21.7923 8.55872C21.8579 8.64261 21.9035 8.74036 21.9256 8.84452C21.9477 8.94868 21.9457 9.05651 21.9199 9.1598L19.2699 19.7698C19.1938 20.0782 19.0165 20.3523 18.7663 20.5481C18.5161 20.7438 18.2075 20.8501 17.8899 20.8498V20.8498Z" stroke="#151515" stroke-width="2.5" stroke-linecap="round" stroke-linejoin="round"/>
<path d="M9.79984 3.1499L6.89984 8.2899" stroke="#151515" stroke-width="2.5" stroke-linecap="round" stroke-linejoin="round"/>
<path d="M13.8799 3.1499L16.7899 8.2899" stroke="#151515" stroke-width="2.5" stroke-linecap="round" stroke-linejoin="round"/>
</svg>
